<?xml version="1.0" encoding="UTF-8"?>
<!DOCTYPE svg PUBLIC "-//W3C//DTD SVG 1.1//EN" "http://www.w3.org/Graphics/SVG/1.1/DTD/svg11.dtd">
<svg xmlns="http://www.w3.org/2000/svg" version="1.1" width="1105px" height="1105px" style="shape-rendering:geometricPrecision; text-rendering:geometricPrecision; image-rendering:optimizeQuality; fill-rule:evenodd; clip-rule:evenodd" xmlns:xlink="http://www.w3.org/1999/xlink">
<g><path style="opacity:0.024" fill="#242524" d="M 571.5,251.5 C 572.833,252.167 572.833,252.167 571.5,251.5 Z"/></g>
<g><path style="opacity:0.996" fill="#f4f4f4" d="M 591.5,282.5 C 592.752,284.001 593.752,285.668 594.5,287.5C 594.427,289.027 595.094,290.027 596.5,290.5C 597.495,294.466 598.495,298.466 599.5,302.5C 607.764,291.736 618.764,287.403 632.5,289.5C 649.54,289.298 665.04,293.965 679,303.5C 684.485,310.116 687.319,317.783 687.5,326.5C 684.922,346.3 681.589,365.966 677.5,385.5C 655.611,381.574 633.611,378.407 611.5,376C 605.855,374.181 600.855,371.348 596.5,367.5C 595.886,364.234 593.886,362.901 590.5,363.5C 566.133,367.314 541.8,371.314 517.5,375.5C 517.108,370.268 515.941,365.268 514,360.5C 509.569,370.934 501.736,376.767 490.5,378C 476.299,379.911 462.299,379.244 448.5,376C 443.003,374.08 437.669,371.913 432.5,369.5C 412.465,372.743 392.465,376.076 372.5,379.5C 364.62,347.145 357.287,314.645 350.5,282C 350.755,280.674 351.422,279.674 352.5,279C 368.449,275.512 384.449,272.346 400.5,269.5C 401.778,269.782 402.778,270.449 403.5,271.5C 407.598,294.09 411.265,316.757 414.5,339.5C 416.167,339.5 417.833,339.5 419.5,339.5C 421.179,339.715 422.179,339.048 422.5,337.5C 420.679,312.18 432.013,296.68 456.5,291C 471.69,287.756 486.19,289.589 500,296.5C 500.651,294.765 500.485,293.098 499.5,291.5C 500.908,290.757 502.241,289.923 503.5,289C 500.16,282.298 496.827,275.631 493.5,269C 497.685,265.812 501.518,262.312 505,258.5C 505.333,258.833 505.667,259.167 506,259.5C 512.862,255.881 520.195,253.881 528,253.5C 538.76,254.985 549.427,256.985 560,259.5C 570.059,256.054 579.559,251.387 588.5,245.5C 591.586,255.942 592.753,266.608 592,277.5C 591.535,278.931 590.701,280.097 589.5,281C 590.044,281.717 590.711,282.217 591.5,282.5 Z"/></g>
<g><path style="opacity:1" fill="#0f0f0f" d="M 577.5,262.5 C 578.5,262.5 579.5,262.5 580.5,262.5C 583.225,271.716 579.892,276.882 570.5,278C 568.167,278.167 565.833,278.333 563.5,278.5C 550.748,276.581 538.081,274.248 525.5,271.5C 519.523,271.159 514.189,272.826 509.5,276.5C 507.789,274.76 506.956,272.76 507,270.5C 514.646,265.064 523.146,262.897 532.5,264C 543.901,267.769 555.568,269.102 567.5,268C 571.346,266.914 574.68,265.081 577.5,262.5 Z"/></g>
<g><path style="opacity:0.506" fill="#6a6a6a" d="M 400.5,269.5 C 401.209,268.596 402.209,268.263 403.5,268.5C 403.5,269.5 403.5,270.5 403.5,271.5C 402.778,270.449 401.778,269.782 400.5,269.5 Z"/></g>
<g><path style="opacity:1" fill="#040404" d="M 386.5,281.5 C 388.833,281.5 391.167,281.5 393.5,281.5C 397.275,304.483 400.942,327.483 404.5,350.5C 410.383,350.325 416.217,349.659 422,348.5C 423.167,348.833 424.333,349.167 425.5,349.5C 426.167,352.167 426.833,354.833 427.5,357.5C 411.667,360.918 395.667,363.918 379.5,366.5C 373.577,339.883 367.91,313.216 362.5,286.5C 370.745,285.434 378.745,283.767 386.5,281.5 Z"/></g>
<g><path style="opacity:0.008" fill="#212221" d="M 591.5,281.5 C 592.833,282.167 592.833,282.167 591.5,281.5 Z"/></g>
<g><path style="opacity:1" fill="#292929" d="M 520.5,282.5 C 522.527,282.338 524.527,282.505 526.5,283C 523.455,283.914 520.455,284.581 517.5,285C 518.571,284.148 519.571,283.315 520.5,282.5 Z"/></g>
<g><path style="opacity:1" fill="#050505" d="M 562.5,285.5 C 567.58,285.25 572.58,285.75 577.5,287C 580.196,287.69 582.363,289.19 584,291.5C 588.741,311.037 592.908,330.704 596.5,350.5C 587.192,352.051 577.859,353.385 568.5,354.5C 565.551,337.476 562.385,320.476 559,303.5C 558.535,302.069 557.701,300.903 556.5,300C 553.167,299.333 549.833,299.333 546.5,300C 543.523,301.145 541.856,303.312 541.5,306.5C 545.155,323.784 548.488,341.117 551.5,358.5C 542.806,359.616 534.139,360.949 525.5,362.5C 521.243,340.733 516.576,319.066 511.5,297.5C 521.811,295.339 532.144,293.339 542.5,291.5C 542.367,296.272 543.7,296.438 546.5,292C 551.603,288.938 556.936,286.771 562.5,285.5 Z"/></g>
<g><path style="opacity:0.322" fill="#6d6d6d" d="M 594.5,287.5 C 595.906,287.973 596.573,288.973 596.5,290.5C 595.094,290.027 594.427,289.027 594.5,287.5 Z"/></g>
<g><path style="opacity:1" fill="#070707" d="M 618.5,299.5 C 632.936,298.183 646.936,300.016 660.5,305C 664.589,307.127 668.423,309.627 672,312.5C 674.086,316.592 675.253,320.925 675.5,325.5C 673.09,341.216 670.423,356.883 667.5,372.5C 659.422,371.598 651.422,370.265 643.5,368.5C 643.5,367.5 643.5,366.5 643.5,365.5C 632.436,365.906 621.436,365.406 610.5,364C 598.167,355.593 597.167,345.926 607.5,335C 618.609,331.959 629.942,330.292 641.5,330C 644.494,329.594 646.661,328.094 648,325.5C 648.667,321.167 648.667,316.833 648,312.5C 644.473,308.468 640.14,307.468 635,309.5C 634.335,314.156 633.835,318.823 633.5,323.5C 623.821,322.582 614.155,321.582 604.5,320.5C 605.288,310.745 609.955,303.745 618.5,299.5 Z"/></g>
<g><path style="opacity:1" fill="#050505" d="M 507.5,323.5 C 507.5,328.167 507.5,332.833 507.5,337.5C 506.5,337.5 505.5,337.5 504.5,337.5C 491.979,336.424 479.479,335.09 467,333.5C 465.833,333.833 464.667,334.167 463.5,334.5C 460.414,341.684 459.914,349.017 462,356.5C 465.366,361.609 469.866,362.776 475.5,360C 479.266,355.534 480.933,350.367 480.5,344.5C 488.493,345.24 496.493,345.907 504.5,346.5C 503.937,358.851 497.603,365.684 485.5,367C 476.167,367.667 466.833,367.667 457.5,367C 444.577,365.068 436.411,357.902 433,345.5C 428.321,315.354 441.155,300.021 471.5,299.5C 480.709,300.069 489.376,302.569 497.5,307C 503.789,310.751 507.123,316.251 507.5,323.5 Z"/></g>
<g><path style="opacity:1" fill="#f5f5f5" d="M 466.5,306.5 C 470.839,305.846 474.673,306.846 478,309.5C 478.499,314.823 478.666,320.156 478.5,325.5C 473.167,325.5 467.833,325.5 462.5,325.5C 462.334,320.821 462.501,316.155 463,311.5C 463.997,309.677 465.164,308.01 466.5,306.5 Z"/></g>
<g><path style="opacity:1" fill="#676767" d="M 507.5,323.5 C 508.487,328.305 508.821,333.305 508.5,338.5C 506.901,338.768 505.568,338.434 504.5,337.5C 505.5,337.5 506.5,337.5 507.5,337.5C 507.5,332.833 507.5,328.167 507.5,323.5 Z"/></g>
<g><path style="opacity:1" fill="#f6f6f6" d="M 636.5,337.5 C 643.184,336.963 645.851,340.129 644.5,347C 645.349,357.824 640.683,361.491 630.5,358C 626.212,354.229 625.379,349.729 628,344.5C 630.257,341.312 633.09,338.978 636.5,337.5 Z"/></g>
<g><path style="opacity:0.529" fill="#727272" d="M 422.5,337.5 C 422.179,339.048 421.179,339.715 419.5,339.5C 420.29,338.599 421.29,337.932 422.5,337.5 Z"/></g>
<g><path style="opacity:0.016" fill="#222322" d="M 596.5,367.5 C 595.833,368.167 595.833,368.167 596.5,367.5 Z"/></g>
<g><path style="opacity:0.008" fill="#212221" d="M 595.5,368.5 C 594.833,369.167 594.833,369.167 595.5,368.5 Z"/></g>
<g><path style="opacity:0.024" fill="#252625" d="M 509.5,371.5 C 510.833,372.167 510.833,372.167 509.5,371.5 Z"/></g>
<g><path style="opacity:0.008" fill="#212221" d="M 598.5,371.5 C 599.833,372.167 599.833,372.167 598.5,371.5 Z"/></g>
<g><path style="opacity:0.495" fill="#9a9a9a" d="M 522.5,382.5 C 506.675,383.496 490.675,383.83 474.5,383.5C 474.5,385.167 474.5,386.833 474.5,388.5C 473.539,386.735 473.205,384.735 473.5,382.5C 489.833,382.5 506.167,382.5 522.5,382.5 Z"/></g>
<g><path style="opacity:0.995" fill="#f7f7f7" d="M 522.5,382.5 C 552.169,382.333 581.835,382.5 611.5,383C 608.534,414.456 605.534,445.956 602.5,477.5C 598.5,474.167 594.833,470.5 591.5,466.5C 592.88,464.826 594.213,463.16 595.5,461.5C 594.326,452.104 592.826,442.771 591,433.5C 584.284,439.217 577.284,444.55 570,449.5C 567.167,447.333 564.333,445.167 561.5,443C 567.047,435.698 567.88,427.865 564,419.5C 561.894,416.882 559.394,414.882 556.5,413.5C 552.212,410.57 547.379,408.903 542,408.5C 529.266,408.055 517.099,410.889 505.5,417C 492.798,425.044 490.131,435.544 497.5,448.5C 499.69,450.524 502.023,452.357 504.5,454C 492.547,463.486 491.38,474.32 501,486.5C 507.855,492.341 515.855,495.007 525,494.5C 537.872,493.877 549.538,489.877 560,482.5C 562.482,484.411 565.149,486.077 568,487.5C 579.384,484.723 590.884,482.39 602.5,480.5C 602.387,485.518 602.053,490.518 601.5,495.5C 583.577,496.486 565.577,496.819 547.5,496.5C 527.167,496.5 506.833,496.5 486.5,496.5C 486.768,494.901 486.434,493.568 485.5,492.5C 481.438,457.877 477.771,423.21 474.5,388.5C 474.5,386.833 474.5,385.167 474.5,383.5C 490.675,383.83 506.675,383.496 522.5,382.5 Z M 528.5,438.5 C 523.209,436.252 520.709,432.252 521,426.5C 521.785,424.714 522.951,423.214 524.5,422C 529.757,420.574 534.257,421.741 538,425.5C 539.368,431.269 537.534,435.769 532.5,439C 530.934,439.765 529.601,439.598 528.5,438.5 Z"/></g>
<g><path style="opacity:0.039" fill="#292a29" d="M 556.5,413.5 C 555.833,414.167 555.833,414.167 556.5,413.5 Z"/></g>
<g><path style="opacity:0.994" fill="#f2f2f2" d="M 540.5,415.5 C 561.093,418.033 565.093,427.367 552.5,443.5C 557.866,449.032 563.7,454.032 570,458.5C 575.333,454.5 580.667,450.5 586,446.5C 586.744,450.727 587.578,454.894 588.5,459C 585.659,460.586 582.993,462.42 580.5,464.5C 583.687,467.853 586.687,471.353 589.5,475C 582.907,476.815 576.24,478.315 569.5,479.5C 565.928,477.935 562.595,475.935 559.5,473.5C 546.286,485.138 530.953,489.305 513.5,486C 503.717,481.934 500.217,474.767 503,464.5C 508.845,458.992 515.679,455.158 523.5,453C 515.912,450.803 508.745,447.637 502,443.5C 498.822,433.016 502.322,425.516 512.5,421C 521.641,417.442 530.974,415.608 540.5,415.5 Z M 528.5,438.5 C 529.601,439.598 530.934,439.765 532.5,439C 537.534,435.769 539.368,431.269 538,425.5C 534.257,421.741 529.757,420.574 524.5,422C 522.951,423.214 521.785,424.714 521,426.5C 520.709,432.252 523.209,436.252 528.5,438.5 Z M 533.5,456.5 C 539.535,459.869 544.202,464.535 547.5,470.5C 543.05,476.889 537.05,479.056 529.5,477C 526.453,474.978 524.786,472.145 524.5,468.5C 526.755,463.916 529.755,459.916 533.5,456.5 Z"/></g>
<g><path style="opacity:0.008" fill="#202120" d="M 508.5,417.5 C 509.833,418.167 509.833,418.167 508.5,417.5 Z"/></g>
<g><path style="opacity:0.039" fill="#292a29" d="M 559.5,420.5 C 558.833,419.167 558.833,419.167 559.5,420.5 Z"/></g>
<g><path style="opacity:0.031" fill="#272827" d="M 559.5,420.5 C 560.833,421.167 560.833,421.167 559.5,420.5 Z"/></g>
<g><path style="opacity:0.835" fill="#b8b8b8" d="M 527.5,429.5 C 528.708,428.218 530.042,428.218 531.5,429.5C 530.375,431.794 529.041,431.794 527.5,429.5 Z"/></g>
<g><path style="opacity:0.031" fill="#272827" d="M 584.5,441.5 C 585.833,442.167 585.833,442.167 584.5,441.5 Z"/></g>
<g><path style="opacity:0.016" fill="#232423" d="M 575.5,449.5 C 576.833,450.167 576.833,450.167 575.5,449.5 Z"/></g>
<g><path style="opacity:0.78" fill="#d9d9d9" d="M 533.5,466.5 C 537.673,467.46 538.173,469.127 535,471.5C 532.491,470.347 531.991,468.68 533.5,466.5 Z"/></g>
<g><path style="opacity:0.078" fill="#323332" d="M 591.5,470.5 C 590.833,469.167 590.833,469.167 591.5,470.5 Z"/></g>
<g><path style="opacity:0.008" fill="#202120" d="M 591.5,470.5 C 592.833,471.167 592.833,471.167 591.5,470.5 Z"/></g>
<g><path style="opacity:0.016" fill="#232423" d="M 503.5,481.5 C 504.833,482.167 504.833,482.167 503.5,481.5 Z"/></g>
<g><path style="opacity:0.008" fill="#212221" d="M 503.5,484.5 C 504.833,485.167 504.833,485.167 503.5,484.5 Z"/></g>
<g><path style="opacity:1" fill="#c7c7c7" d="M 668.5,491.5 C 675.655,492.329 682.989,492.829 690.5,493C 679.839,493.5 669.172,493.667 658.5,493.5C 661.337,491.598 664.671,490.931 668.5,491.5 Z"/></g>
<g><path style="opacity:0.478" fill="#989897" d="M 485.5,492.5 C 486.434,493.568 486.768,494.901 486.5,496.5C 506.833,496.5 527.167,496.5 547.5,496.5C 547.5,496.833 547.5,497.167 547.5,497.5C 526.833,497.5 506.167,497.5 485.5,497.5C 485.5,495.833 485.5,494.167 485.5,492.5 Z"/></g>
<g><path style="opacity:0.204" fill="#525252" d="M 601.5,495.5 C 583.864,497.487 565.864,498.153 547.5,497.5C 547.5,497.167 547.5,496.833 547.5,496.5C 565.577,496.819 583.577,496.486 601.5,495.5 Z"/></g>
<g><path style="opacity:0.259" fill="#605f5d" d="M 535.5,500.5 C 532.167,500.5 528.833,500.5 525.5,500.5C 525.369,499.761 525.536,499.094 526,498.5C 529.27,499.132 532.437,499.799 535.5,500.5 Z"/></g>
<g><path style="opacity:0.047" fill="#2a2b2a" d="M 690.5,499.5 C 691.833,500.167 691.833,500.167 690.5,499.5 Z"/></g>
<g><path style="opacity:0.031" fill="#262726" d="M 647.5,504.5 C 648.833,505.167 648.833,505.167 647.5,504.5 Z"/></g>
<g><path style="opacity:0.008" fill="#202120" d="M 647.5,505.5 C 646.833,506.167 646.833,506.167 647.5,505.5 Z"/></g>
<g><path style="opacity:0.008" fill="#202120" d="M 678.5,508.5 C 679.833,509.167 679.833,509.167 678.5,508.5 Z"/></g>
<g><path style="opacity:0.996" fill="#f5f5f5" d="M 525.5,500.5 C 528.833,500.5 532.167,500.5 535.5,500.5C 549.581,500.804 563.414,500.804 577,500.5C 577.409,506.51 577.242,512.51 576.5,518.5C 589.866,516.709 601.366,520.376 611,529.5C 612.528,532.417 613.861,535.417 615,538.5C 634.992,527.614 655.825,525.614 677.5,532.5C 677.807,531.113 677.807,529.446 677.5,527.5C 697.613,523.577 717.613,519.077 737.5,514C 745.548,513.225 753.548,513.558 761.5,515C 767,517.833 771.167,522 774,527.5C 778.717,550.469 783.217,573.469 787.5,596.5C 811.833,596.5 836.167,596.5 860.5,596.5C 861.762,639.825 862.595,683.158 863,726.5C 835.995,723.145 808.828,719.645 781.5,716C 599.223,693.966 417.556,698.132 236.5,728.5C 235.5,728.5 234.5,728.5 233.5,728.5C 233.768,726.901 233.434,725.568 232.5,724.5C 231.672,682.503 231.006,640.503 230.5,598.5C 255.509,598.833 280.509,598.5 305.5,597.5C 304.349,593.424 303.682,589.257 303.5,585C 304.964,571.525 306.131,558.025 307,544.5C 310.164,529.812 319.331,521.978 334.5,521C 353.042,518.121 371.042,520.121 388.5,527C 392.933,529.133 396.433,532.3 399,536.5C 399.717,535.956 400.217,535.289 400.5,534.5C 408.494,529.265 417.327,527.265 427,528.5C 440.104,527.986 452.437,530.653 464,536.5C 464.15,533.579 463.65,530.746 462.5,528C 478.08,524.284 493.747,520.951 509.5,518C 514.265,516.801 518.931,515.301 523.5,513.5C 524.576,509.225 525.243,504.892 525.5,500.5 Z"/></g>
<g><path style="opacity:1" fill="#040404" d="M 538.5,593.5 C 537.432,592.566 536.099,592.232 534.5,592.5C 534.5,590.833 534.5,589.167 534.5,587.5C 535.258,562.157 536.258,536.823 537.5,511.5C 547.5,511.833 557.5,512.167 567.5,512.5C 566.724,519.137 566.391,525.804 566.5,532.5C 574.241,529.681 582.241,528.847 590.5,530C 599.318,530.47 604.485,534.97 606,543.5C 607.686,556.813 607.686,570.146 606,583.5C 603.491,594.007 596.824,599.34 586,599.5C 576.845,598.892 568.345,596.225 560.5,591.5C 559.017,593.385 557.017,594.385 554.5,594.5C 549.193,593.724 543.86,593.391 538.5,593.5 Z"/></g>
<g><path style="opacity:0.024" fill="#242524" d="M 671.5,514.5 C 672.833,515.167 672.833,515.167 671.5,514.5 Z"/></g>
<g><path style="opacity:0.998" fill="#ebebeb" d="M 659.5,522.5 C 656.511,523.298 653.845,524.798 651.5,527C 646.63,527.967 641.963,527.467 637.5,525.5C 644.524,514.768 651.524,504.102 658.5,493.5C 669.172,493.667 679.839,493.5 690.5,493C 682.989,492.829 675.655,492.329 668.5,491.5C 678.083,491.818 687.583,491.485 697,490.5C 697.5,491 698,491.5 698.5,492C 687.448,500.719 676.114,509.053 664.5,517C 662.576,518.75 660.909,520.583 659.5,522.5 Z"/></g>
<g><path style="opacity:1" fill="#151515" d="M 661.5,498.5 C 667.176,498.334 672.843,498.501 678.5,499C 670.343,505.245 662.01,511.245 653.5,517C 652.241,517.982 650.908,518.315 649.5,518C 653.636,511.556 657.636,505.056 661.5,498.5 Z"/></g>
<g><path style="opacity:0.024" fill="#252625" d="M 603.5,520.5 C 604.833,521.167 604.833,521.167 603.5,520.5 Z"/></g>
<g><path style="opacity:0.024" fill="#252625" d="M 659.5,522.5 C 660.833,523.167 660.833,523.167 659.5,522.5 Z"/></g>
<g><path style="opacity:0.039" fill="#292a29" d="M 655.5,525.5 C 656.833,526.167 656.833,526.167 655.5,525.5 Z"/></g>
<g><path style="opacity:0.024" fill="#242524" d="M 402.5,529.5 C 403.833,530.167 403.833,530.167 402.5,529.5 Z"/></g>
<g><path style="opacity:1" fill="#040404" d="M 522.5,526.5 C 523.5,526.5 524.5,526.5 525.5,526.5C 526.498,533.16 527.498,539.827 528.5,546.5C 523.963,546.884 519.629,548.051 515.5,550C 513.513,551.319 512.346,553.152 512,555.5C 513.821,569.087 515.321,582.754 516.5,596.5C 508.449,597.555 500.449,598.888 492.5,600.5C 487.371,580.314 482.704,559.98 478.5,539.5C 478.709,538.006 479.376,536.839 480.5,536C 489.533,534.227 498.533,532.393 507.5,530.5C 506.577,539.319 507.91,540.153 511.5,533C 515.096,530.539 518.763,528.373 522.5,526.5 Z"/></g>
<g><path style="opacity:1" fill="#040404" d="M 340.5,531.5 C 356.436,529.863 371.769,532.03 386.5,538C 392.767,542.795 395.101,549.128 393.5,557C 393.467,560.885 393.133,564.719 392.5,568.5C 383.142,569.011 373.809,568.345 364.5,566.5C 364.666,559.159 364.5,551.826 364,544.5C 359.263,540.568 354.596,540.568 350,544.5C 348.268,549.35 347.268,554.35 347,559.5C 345.592,573.809 345.259,588.142 346,602.5C 354.011,606.661 359.011,604.328 361,595.5C 361.719,591.855 362.219,588.188 362.5,584.5C 372.131,584.663 381.631,585.663 391,587.5C 389.84,597.31 385.006,604.81 376.5,610C 362.492,613.267 348.492,613.267 334.5,610C 321.383,606.476 315.383,597.809 316.5,584C 317.967,571.529 319.134,559.029 320,546.5C 320.864,541.629 323.364,537.796 327.5,535C 331.919,533.648 336.252,532.481 340.5,531.5 Z"/></g>
<g><path style="opacity:1" fill="#040404" d="M 745.5,524.5 C 751.533,523.965 757.199,525.132 762.5,528C 763.667,529.833 764.833,531.667 766,533.5C 769.824,552.454 773.324,571.454 776.5,590.5C 767.714,590.565 759.048,591.565 750.5,593.5C 746.235,576.351 742.402,559.018 739,541.5C 733.541,536.104 728.208,536.437 723,542.5C 724.267,558.363 726.934,574.03 731,589.5C 731.667,591.833 731.667,594.167 731,596.5C 722.675,598.714 714.175,600.047 705.5,600.5C 701.425,579.124 697.091,557.79 692.5,536.5C 702.479,534.282 712.479,532.282 722.5,530.5C 722.281,531.675 722.614,532.675 723.5,533.5C 730.12,528.522 737.453,525.522 745.5,524.5 Z"/></g>
<g><path style="opacity:0.016" fill="#232423" d="M 400.5,534.5 C 399.833,533.167 399.833,533.167 400.5,534.5 Z"/></g>
<g><path style="opacity:1" fill="#f7f7f7" d="M 567.5,537.5 C 572.439,536.352 575.939,538.019 578,542.5C 578.167,548.833 578.333,555.167 578.5,561.5C 578.613,568.908 578.113,576.241 577,583.5C 572.092,590.986 566.759,591.319 561,584.5C 559.38,581.021 558.547,577.354 558.5,573.5C 559.12,565.089 560.286,556.755 562,548.5C 563.181,544.426 565.014,540.759 567.5,537.5 Z"/></g>
<g><path style="opacity:1" fill="#050505" d="M 418.5,539.5 C 434.624,538.263 449.957,541.097 464.5,548C 468.112,550.28 470.612,553.447 472,557.5C 472.667,563.5 472.667,569.5 472,575.5C 469.508,587.79 467.342,600.124 465.5,612.5C 457.513,611.169 449.513,609.836 441.5,608.5C 441.5,607.5 441.5,606.5 441.5,605.5C 431.828,605.666 422.161,605.5 412.5,605C 396.498,598.322 394.165,588.322 405.5,575C 415.597,572.043 425.93,570.71 436.5,571C 439.244,570.197 441.911,569.197 444.5,568C 446.457,563.024 446.957,557.857 446,552.5C 442.641,548.469 438.475,547.469 433.5,549.5C 432.342,554.099 431.675,558.766 431.5,563.5C 421.886,562.039 412.219,561.039 402.5,560.5C 402.841,549.407 408.175,542.407 418.5,539.5 Z"/></g>
<g><path style="opacity:1" fill="#050505" d="M 644.5,539.5 C 655.893,538.449 666.893,539.949 677.5,544C 683.685,548.526 687.185,554.692 688,562.5C 690.955,572.897 690.955,583.23 688,593.5C 682.747,600.885 675.58,605.385 666.5,607C 654.161,608.975 641.828,608.975 629.5,607C 626.374,605.371 623.707,603.205 621.5,600.5C 614.701,586.135 612.535,571.135 615,555.5C 616.458,553.04 618.291,550.873 620.5,549C 628.349,545.113 636.349,541.946 644.5,539.5 Z"/></g>
<g><path style="opacity:1" fill="#f7f7f7" d="M 644.5,547.5 C 648.287,546.814 651.454,547.814 654,550.5C 657.361,554.933 659.361,559.933 660,565.5C 661.453,575.126 661.786,584.793 661,594.5C 658.191,601.827 653.691,603.16 647.5,598.5C 645.501,596.507 644.001,594.173 643,591.5C 641.171,578.873 640.171,566.207 640,553.5C 640.804,550.854 642.304,548.854 644.5,547.5 Z"/></g>
<g><path style="opacity:1" fill="#f4f4f4" d="M 435.5,577.5 C 438.547,576.855 440.713,577.855 442,580.5C 442.667,584.833 442.667,589.167 442,593.5C 439.983,598.924 436.15,600.758 430.5,599C 423.634,595.779 422.134,590.945 426,584.5C 428.529,581.115 431.696,578.782 435.5,577.5 Z"/></g>
<g><path style="opacity:1" fill="#696969" d="M 534.5,587.5 C 534.5,589.167 534.5,590.833 534.5,592.5C 536.099,592.232 537.432,592.566 538.5,593.5C 536.833,593.5 535.167,593.5 533.5,593.5C 533.205,591.265 533.539,589.265 534.5,587.5 Z"/></g>
<g><path style="opacity:1" fill="#050505" d="M 242.5,638.5 C 242.5,629.167 242.5,619.833 242.5,610.5C 265.833,610.5 289.167,610.5 312.5,610.5C 321.599,617.37 331.932,621.203 343.5,622C 356.479,623.386 369.146,622.052 381.5,618C 385.177,614.302 389.344,611.469 394,609.5C 398.957,611.719 404.124,613.553 409.5,615C 415.167,615.333 420.833,615.667 426.5,616C 441.71,619.134 457.044,621.634 472.5,623.5C 473.26,618.85 473.926,614.183 474.5,609.5C 477.826,609.354 480.993,610.021 484,611.5C 488.2,610.828 492.367,609.994 496.5,609C 535.5,608.333 574.5,608.333 613.5,609C 622.268,616.947 632.601,620.113 644.5,618.5C 659.143,619.255 672.81,616.088 685.5,609C 688.817,608.502 692.15,608.335 695.5,608.5C 695.5,609.833 695.5,611.167 695.5,612.5C 702.562,611.767 709.562,610.601 716.5,609C 761.165,608.5 805.832,608.333 850.5,608.5C 850.87,643.5 851.204,678.5 851.5,713.5C 702.505,691.073 552.838,685.239 402.5,696C 349.237,700.45 296.237,706.95 243.5,715.5C 243.452,689.829 243.119,664.162 242.5,638.5 Z"/></g>
<g><path style="opacity:1" fill="#646464" d="M 312.5,610.5 C 289.167,610.5 265.833,610.5 242.5,610.5C 242.5,619.833 242.5,629.167 242.5,638.5C 241.506,629.014 241.173,619.348 241.5,609.5C 265.339,609.169 289.006,609.502 312.5,610.5 Z"/></g>
<g><path style="opacity:1" fill="#f8f8f8" d="M 658.5,631.5 C 663.179,631.334 667.845,631.501 672.5,632C 680.069,634.584 682.569,639.751 680,647.5C 679.365,648.966 678.531,650.3 677.5,651.5C 681.141,653.307 683.974,655.974 686,659.5C 685.876,654.864 685.71,650.198 685.5,645.5C 689.555,645.176 693.555,645.509 697.5,646.5C 698.098,647.795 698.598,649.128 699,650.5C 700.968,645.258 704.802,642.591 710.5,642.5C 711.314,647.119 711.647,651.786 711.5,656.5C 707.112,655.943 703.945,657.61 702,661.5C 701.947,667.525 702.447,673.525 703.5,679.5C 698.482,679.613 693.482,679.947 688.5,680.5C 688.66,675.434 688.16,670.434 687,665.5C 686.444,670.389 683.944,673.889 679.5,676C 667.997,679.028 656.33,681.195 644.5,682.5C 641.509,666.888 638.842,651.221 636.5,635.5C 644.009,634.432 651.342,633.099 658.5,631.5 Z"/></g>
<g><path style="opacity:1" fill="#f9f9f9" d="M 382.5,632.5 C 387.167,632.833 391.833,633.167 396.5,633.5C 395.111,648.837 393.611,664.171 392,679.5C 387.587,680.632 383.087,680.799 378.5,680C 377.903,678.938 377.57,677.772 377.5,676.5C 379.752,661.897 381.419,647.231 382.5,632.5 Z"/></g>
<g><path style="opacity:1" fill="#f8f8f8" d="M 561.5,631.5 C 565.415,632.267 569.415,632.767 573.5,633C 574.428,633.388 575.095,634.055 575.5,635C 573.779,650.159 572.113,665.325 570.5,680.5C 565.819,680.331 561.152,679.998 556.5,679.5C 557.586,663.396 559.253,647.396 561.5,631.5 Z"/></g>
<g><path style="opacity:1" fill="#f9f9f9" d="M 286.5,633.5 C 293.508,633.334 300.508,633.5 307.5,634C 316.916,637.663 320.416,644.496 318,654.5C 316.86,659.64 313.694,662.807 308.5,664C 303.213,665.161 297.879,665.994 292.5,666.5C 292.916,671.493 293.249,676.493 293.5,681.5C 288.213,682.342 282.88,682.676 277.5,682.5C 276.199,666.792 274.532,651.125 272.5,635.5C 277.353,635.187 282.02,634.521 286.5,633.5 Z"/></g>
<g><path style="opacity:1" fill="#101010" d="M 655.5,643.5 C 658.85,643.335 662.183,643.502 665.5,644C 667.223,647.408 666.223,649.741 662.5,651C 659.854,651.497 657.187,651.664 654.5,651.5C 654.279,648.721 654.612,646.054 655.5,643.5 Z"/></g>
<g><path style="opacity:1" fill="#0b0b0b" d="M 289.5,644.5 C 292.85,644.335 296.183,644.502 299.5,645C 304.255,647.51 304.588,650.51 300.5,654C 297.146,654.455 293.813,654.955 290.5,655.5C 290.276,651.821 289.942,648.154 289.5,644.5 Z"/></g>
<g><path style="opacity:1" fill="#f7f7f7" d="M 506.5,644.5 C 516.209,643.534 525.375,645.201 534,649.5C 535.552,651.768 536.385,654.268 536.5,657C 534.749,665.157 534.415,673.324 535.5,681.5C 534.833,681.833 534.167,682.167 533.5,682.5C 529.529,681.803 525.529,681.303 521.5,681C 520.809,679.933 520.309,678.766 520,677.5C 511.802,682.098 504.136,681.431 497,675.5C 493.079,666.999 495.579,661.499 504.5,659C 509.5,658.667 514.5,658.333 519.5,658C 520.91,657.632 521.91,656.799 522.5,655.5C 520.956,653.753 518.956,652.753 516.5,652.5C 514.294,654.199 511.794,655.199 509,655.5C 497.163,654.482 496.33,650.816 506.5,644.5 Z"/></g>
<g><path style="opacity:1" fill="#f7f7f7" d="M 586.5,644.5 C 595.46,643.766 604.126,644.932 612.5,648C 613.667,649.167 614.833,650.333 616,651.5C 616.316,659.867 615.816,668.201 614.5,676.5C 614.621,677.894 614.954,679.228 615.5,680.5C 610.833,681.651 606.166,681.651 601.5,680.5C 601.5,679.5 601.5,678.5 601.5,677.5C 597.609,678.806 593.609,679.806 589.5,680.5C 579.457,680.271 574.957,675.271 576,665.5C 577.868,661.479 581.035,659.313 585.5,659C 590.167,658.667 594.833,658.333 599.5,658C 602.234,657.282 602.9,655.782 601.5,653.5C 599.232,652.456 596.899,652.289 594.5,653C 593.619,654.471 592.286,655.304 590.5,655.5C 586.868,654.754 583.202,654.421 579.5,654.5C 579.52,649.489 581.853,646.156 586.5,644.5 Z"/></g>
<g><path style="opacity:1" fill="#f7f7f7" d="M 362.5,632.5 C 367.152,632.998 371.819,633.331 376.5,633.5C 374.837,649.474 373.503,665.474 372.5,681.5C 367.823,681.165 363.156,680.665 358.5,680C 358.031,676.92 357.865,673.754 358,670.5C 356.167,675 353,678.167 348.5,680C 324.473,685.307 315.306,676.14 321,652.5C 323.99,649.509 327.49,647.343 331.5,646C 341.026,643.653 349.193,645.82 356,652.5C 357.399,655.363 358.399,658.363 359,661.5C 360.715,651.893 361.882,642.227 362.5,632.5 Z"/></g>
<g><path style="opacity:1" fill="#f6f6f6" d="M 414.5,644.5 C 430.859,642.908 439.359,650.241 440,666.5C 443.745,667.488 447.578,668.155 451.5,668.5C 452.174,673.151 454.841,674.651 459.5,673C 460.705,670.766 460.039,669.099 457.5,668C 451.525,666.597 446.358,663.763 442,659.5C 439.78,652.563 441.947,647.73 448.5,645C 458.014,643.499 466.514,645.666 474,651.5C 475.202,653.677 475.702,656.011 475.5,658.5C 471.186,657.725 466.853,657.059 462.5,656.5C 462.845,653.512 461.512,652.179 458.5,652.5C 454.656,652.455 453.989,653.621 456.5,656C 460.683,658.257 465.016,660.257 469.5,662C 474.223,665.254 475.723,669.754 474,675.5C 472.16,678.176 469.66,680.009 466.5,681C 457.995,682.491 449.995,681.157 442.5,677C 440.641,675.442 439.141,673.609 438,671.5C 434.583,676.794 429.75,679.961 423.5,681C 405.879,683.045 397.712,675.212 399,657.5C 402.103,650.699 407.27,646.366 414.5,644.5 Z"/></g>
<g><path style="opacity:1" fill="#f6f6f6" d="M 723.5,643.5 C 731.764,642.917 739.764,644.084 747.5,647C 749.726,648.227 751.226,650.061 752,652.5C 752.064,656.903 752.231,661.236 752.5,665.5C 756.448,666.445 760.448,667.112 764.5,667.5C 765.174,672.151 767.841,673.651 772.5,672C 773.705,669.766 773.039,668.099 770.5,667C 765.222,665.249 760.389,662.749 756,659.5C 752.689,648.809 756.689,643.476 768,643.5C 775.993,643.049 782.66,645.716 788,651.5C 788.495,653.473 788.662,655.473 788.5,657.5C 782.684,657.551 777.684,655.718 773.5,652C 771.866,651.506 770.199,651.34 768.5,651.5C 768.33,652.822 768.663,653.989 769.5,655C 775.943,657.387 781.943,660.554 787.5,664.5C 789.52,660.981 792.52,658.814 796.5,658C 801.833,657.667 807.167,657.333 812.5,657C 815.121,653.712 814.121,651.879 809.5,651.5C 807.104,652.722 804.604,653.722 802,654.5C 798.527,653.837 795.027,653.504 791.5,653.5C 791.426,648.071 794.093,644.904 799.5,644C 805.882,643.311 812.215,643.645 818.5,645C 825.044,645.873 828.378,649.539 828.5,656C 827.013,664.177 826.68,672.343 827.5,680.5C 822.913,680.888 818.246,680.888 813.5,680.5C 813.762,679.022 813.429,677.689 812.5,676.5C 803.533,681.255 795.367,680.255 788,673.5C 786.833,676 785,677.833 782.5,679C 773.078,681.66 764.078,680.66 755.5,676C 753.641,674.442 752.141,672.609 751,670.5C 750.248,673.894 750.415,677.227 751.5,680.5C 746.526,681.395 741.526,681.395 736.5,680.5C 736.5,679.5 736.5,678.5 736.5,677.5C 730.245,679.87 723.912,680.037 717.5,678C 711.975,675.081 710.142,670.581 712,664.5C 712.785,662.714 713.951,661.214 715.5,660C 722.34,658.01 729.34,657.01 736.5,657C 738.158,656.275 738.658,655.108 738,653.5C 730.696,654.465 723.196,654.465 715.5,653.5C 715.247,651.173 715.914,649.173 717.5,647.5C 719.565,646.143 721.565,644.81 723.5,643.5 Z"/></g>
<g><path style="opacity:1" fill="#0b0b0b" d="M 335.5,654.5 C 339.683,653.846 342.516,655.512 344,659.5C 344.667,662.833 344.667,666.167 344,669.5C 340.303,673.582 336.97,673.249 334,668.5C 331.564,663.333 332.064,658.666 335.5,654.5 Z"/></g>
<g><path style="opacity:1" fill="#101010" d="M 415.5,654.5 C 419.49,653.616 422.323,654.949 424,658.5C 426.548,663.72 425.715,668.22 421.5,672C 417.82,672.682 415.32,671.182 414,667.5C 411.679,662.774 412.179,658.44 415.5,654.5 Z"/></g>
<g><path style="opacity:1" fill="#0e0e0e" d="M 660.5,659.5 C 663.518,659.335 666.518,659.502 669.5,660C 672.462,663.488 671.795,666.155 667.5,668C 664.574,668.218 661.74,668.718 659,669.5C 657.711,666.649 657.211,663.649 657.5,660.5C 658.791,660.737 659.791,660.404 660.5,659.5 Z"/></g>
<g><path style="opacity:1" fill="#171717" d="M 810.5,664.5 C 811.675,664.281 812.675,664.614 813.5,665.5C 812.24,671.126 808.906,673.126 803.5,671.5C 802.369,669.926 802.202,668.259 803,666.5C 805.607,665.877 808.107,665.21 810.5,664.5 Z"/></g>
<g><path style="opacity:1" fill="#181818" d="M 516.5,665.5 C 518.288,665.215 519.955,665.548 521.5,666.5C 519.873,672.647 516.206,674.48 510.5,672C 509.483,670.951 509.316,669.784 510,668.5C 512.166,667.269 514.333,666.269 516.5,665.5 Z"/></g>
<g><path style="opacity:1" fill="#151515" d="M 594.5,665.5 C 596.833,665.5 599.167,665.5 601.5,665.5C 600.973,671.849 597.639,674.016 591.5,672C 589.745,668.495 590.745,666.328 594.5,665.5 Z"/></g>
<g><path style="opacity:1" fill="#101010" d="M 728.5,665.5 C 731.518,665.335 734.518,665.502 737.5,666C 736.114,671.578 732.78,673.411 727.5,671.5C 726.229,669.194 726.562,667.194 728.5,665.5 Z"/></g>
<g><path style="opacity:0.322" fill="#686868" d="M 232.5,724.5 C 233.434,725.568 233.768,726.901 233.5,728.5C 234.5,728.5 235.5,728.5 236.5,728.5C 235.432,729.434 234.099,729.768 232.5,729.5C 232.5,727.833 232.5,726.167 232.5,724.5 Z"/></g>
<g><path style="opacity:0.989" fill="#ebebeb" d="M 759.5,818.5 C 758.352,816.245 756.686,814.412 754.5,813C 749.401,810.117 744.067,807.783 738.5,806C 718.982,801.631 699.648,796.631 680.5,791C 667.49,787.114 663.656,778.947 669,766.5C 675.94,756.898 685.107,750.398 696.5,747C 718.737,738.638 741.404,736.971 764.5,742C 772.32,744.15 776.987,749.15 778.5,757C 774.553,766.985 767.887,769.652 758.5,765C 758.759,763.739 759.426,762.739 760.5,762C 763.503,760.834 766.17,759.167 768.5,757C 767.5,756 766.5,755 765.5,754C 737.039,747.91 710.039,751.91 684.5,766C 674.88,773.166 675.547,778.832 686.5,783C 703.01,787.628 719.677,791.628 736.5,795C 748.845,798.207 759.345,804.373 768,813.5C 772.465,827.056 767.632,835.223 753.5,838C 728.512,842.059 705.179,837.726 683.5,825C 675.921,818.771 674.587,811.437 679.5,803C 683.631,799.923 688.298,798.756 693.5,799.5C 693.657,800.873 693.49,802.207 693,803.5C 692.667,803.167 692.333,802.833 692,802.5C 680.236,810.422 681.07,817.255 694.5,823C 712.82,830.832 731.82,833.165 751.5,830C 756.169,829.177 759.502,826.677 761.5,822.5C 761.006,820.974 760.339,819.641 759.5,818.5 Z"/></g>
<g><path style="opacity:0.047" fill="#2b2c2b" d="M 677.5,752.5 C 678.833,753.167 678.833,753.167 677.5,752.5 Z"/></g>
<g><path style="opacity:0.991" fill="#ebebeb" d="M 813.5,824.5 C 813.665,821.482 813.498,818.482 813,815.5C 812.283,816.044 811.783,816.711 811.5,817.5C 808.094,822.65 804.261,823.65 800,820.5C 799.667,820.833 799.333,821.167 799,821.5C 798.581,820.328 797.915,819.328 797,818.5C 793.272,828.83 786.938,831.164 778,825.5C 772.014,815.321 771.014,804.654 775,793.5C 779.398,784.122 785.898,781.955 794.5,787C 798.409,785.858 801.909,786.691 805,789.5C 804.586,796.81 804.586,804.143 805,811.5C 805.221,814.943 806.221,815.276 808,812.5C 809.732,808.637 811.066,804.637 812,800.5C 812.333,785.833 812.667,771.167 813,756.5C 816.364,752.549 819.698,752.549 823,756.5C 823.525,766.198 823.525,775.865 823,785.5C 831.264,780.705 837.097,782.871 840.5,792C 843.242,801.866 841.242,810.533 834.5,818C 830.906,819.741 827.239,819.908 823.5,818.5C 823.724,822.713 821.558,825.38 817,826.5C 815.698,825.915 814.531,825.249 813.5,824.5 Z M 827.5,788.5 C 829.411,788.574 830.578,789.574 831,791.5C 831.739,797.558 831.406,803.558 830,809.5C 828.789,813.462 826.789,814.129 824,811.5C 821.914,803.349 823.081,795.682 827.5,788.5 Z M 788.5,791.5 C 790.017,791.511 791.184,792.177 792,793.5C 794.76,801.832 794.427,810.165 791,818.5C 788.667,823.833 786.333,823.833 784,818.5C 781.048,808.591 782.548,799.591 788.5,791.5 Z"/></g>
<g><path style="opacity:0.024" fill="#242524" d="M 667.5,762.5 C 668.833,763.167 668.833,763.167 667.5,762.5 Z"/></g>
<g><path style="opacity:0.008" fill="#202120" d="M 311.5,763.5 C 312.833,764.167 312.833,764.167 311.5,763.5 Z"/></g>
<g><path style="opacity:0.024" fill="#252625" d="M 856.5,776.5 C 857.833,777.167 857.833,777.167 856.5,776.5 Z"/></g>
<g><path style="opacity:0.016" fill="#222322" d="M 880.5,778.5 C 881.833,779.167 881.833,779.167 880.5,778.5 Z"/></g>
<g><path style="opacity:0.031" fill="#272827" d="M 875.5,781.5 C 876.833,782.167 876.833,782.167 875.5,781.5 Z"/></g>
<g><path style="opacity:0.986" fill="#e9e9e9" d="M 856.5,779.5 C 868.692,778.855 875.025,784.689 875.5,797C 874.412,808.757 868.246,814.923 857,815.5C 847.145,810.434 843.811,802.434 847,791.5C 848.982,786.374 852.148,782.374 856.5,779.5 Z M 863.5,789.5 C 862.167,789.833 862.167,790.167 863.5,790.5C 865.815,795.986 866.148,801.653 864.5,807.5C 862.278,807.822 860.444,807.155 859,805.5C 856.034,799.198 855.867,792.865 858.5,786.5C 861.312,785.281 862.979,786.281 863.5,789.5 Z"/></g>
<g><path style="opacity:0.031" fill="#262726" d="M 840.5,785.5 C 841.833,786.167 841.833,786.167 840.5,785.5 Z"/></g>
<g><path style="opacity:0.981" fill="#e5e5e5" d="M 412.5,785.5 C 414.167,785.5 415.833,785.5 417.5,785.5C 417.929,789.459 416.929,792.959 414.5,796C 407.28,798.043 400.113,800.209 393,802.5C 389.805,799.574 390.305,797.074 394.5,795C 400.435,791.535 406.435,788.368 412.5,785.5 Z"/></g>
<g><path style="opacity:0.977" fill="#e7e7e7" d="M 886.5,815.5 C 884.292,808.292 883.959,800.959 885.5,793.5C 885.167,793.167 884.833,792.833 884.5,792.5C 883.265,793.34 882.265,794.34 881.5,795.5C 880.5,795.5 879.5,795.5 878.5,795.5C 878.784,793.585 878.451,791.919 877.5,790.5C 875.376,783.365 877.876,780.365 885,781.5C 885.495,783.473 885.662,785.473 885.5,787.5C 887.734,787.62 889.901,787.287 892,786.5C 893.261,786.759 894.261,787.426 895,788.5C 892.808,817.448 895.641,817.782 903.5,789.5C 906.782,786.449 908.448,787.282 908.5,792C 907.527,801.61 903.86,809.943 897.5,817C 893.207,819.411 889.54,818.911 886.5,815.5 Z"/></g>
<g><path style="opacity:0.055" fill="#2c2d2c" d="M 896.5,787.5 C 897.833,788.167 897.833,788.167 896.5,787.5 Z"/></g>
<g><path style="opacity:0.99" fill="#ececec" d="M 252.5,755.5 C 272.226,753.839 291.226,756.673 309.5,764C 322.338,771.507 325.504,782.007 319,795.5C 309.99,805.76 298.823,812.593 285.5,816C 276.565,818.487 267.565,820.653 258.5,822.5C 259.1,833.729 257.934,844.729 255,855.5C 254.311,856.357 253.478,857.023 252.5,857.5C 250.091,853.882 248.591,849.882 248,845.5C 247.048,838.864 246.548,832.197 246.5,825.5C 233.016,827.206 219.516,828.873 206,830.5C 196.328,828.899 196.494,826.732 206.5,824C 219.865,821.606 233.198,819.106 246.5,816.5C 246.334,808.493 246.5,800.493 247,792.5C 246.633,785.583 249.466,783.416 255.5,786C 257.487,787.319 258.654,789.152 259,791.5C 259.582,798.852 259.415,806.185 258.5,813.5C 274.135,811.011 288.802,805.844 302.5,798C 315.608,786.752 314.274,777.752 298.5,771C 275.33,765.844 252.33,766.511 229.5,773C 220.088,776.471 210.754,780.137 201.5,784C 198.947,784.851 196.614,784.518 194.5,783C 195.701,779.79 197.701,777.123 200.5,775C 216.301,764.235 233.635,757.735 252.5,755.5 Z"/></g>
<g><path style="opacity:0.988" fill="#ebebeb" d="M 640.5,829.5 C 641.995,829.415 642.995,830.081 643.5,831.5C 642.315,832.853 640.981,834.02 639.5,835C 640.252,835.671 640.586,836.504 640.5,837.5C 637.733,838.932 635.066,838.599 632.5,836.5C 629.99,832.475 628.157,828.142 627,823.5C 625.338,826.649 623.505,829.649 621.5,832.5C 614.367,838.62 607.034,839.286 599.5,834.5C 596.103,828.836 594.769,822.67 595.5,816C 594.778,806.503 597.444,798.17 603.5,791C 610.82,788.742 615.987,791.242 619,798.5C 620.753,802.219 620.753,805.886 619,809.5C 615.113,812.462 610.78,814.462 606,815.5C 604.948,820.735 605.781,825.568 608.5,830C 612.672,830.868 615.838,829.368 618,825.5C 621.194,820.446 623.861,815.112 626,809.5C 626.333,796.5 626.667,783.5 627,770.5C 629.612,767.424 632.779,766.757 636.5,768.5C 637.553,769.438 638.22,770.605 638.5,772C 636.354,789.14 636.187,806.307 638,823.5C 638.037,825.974 638.87,827.974 640.5,829.5 Z M 608.5,797.5 C 610.95,797.874 611.95,799.374 611.5,802C 611.358,805.306 609.691,807.14 606.5,807.5C 607.167,804.167 607.833,800.833 608.5,797.5 Z"/></g>
<g><path style="opacity:0.016" fill="#232423" d="M 320.5,794.5 C 321.833,795.167 321.833,795.167 320.5,794.5 Z"/></g>
<g><path style="opacity:0.988" fill="#e6e6e6" d="M 375.5,793.5 C 379.215,793.196 382.715,793.863 386,795.5C 388.154,799.058 387.654,802.225 384.5,805C 379.238,808.086 373.905,808.253 368.5,805.5C 366.704,799.092 369.038,795.092 375.5,793.5 Z"/></g>
<g><path style="opacity:0.984" fill="#efefef" d="M 487.5,792.5 C 489.308,792.491 490.975,792.991 492.5,794C 491.969,797.57 491.802,801.07 492,804.5C 501.849,798.466 508.183,801.133 511,812.5C 512.875,821.531 510.708,829.364 504.5,836C 500.219,838.109 496.052,837.942 492,835.5C 492.356,841.812 492.356,848.145 492,854.5C 489.163,856.585 486.163,856.919 483,855.5C 482.632,837.466 481.799,819.466 480.5,801.5C 481.042,796.973 483.376,793.973 487.5,792.5 Z M 496.5,807.5 C 498.017,807.511 499.184,808.177 500,809.5C 502.142,816.278 501.809,822.945 499,829.5C 496.211,832.129 494.211,831.462 493,827.5C 490.892,820.213 492.058,813.546 496.5,807.5 Z"/></g>
<g><path style="opacity:0.008" fill="#202120" d="M 299.5,795.5 C 300.833,796.167 300.833,796.167 299.5,795.5 Z"/></g>
<g><path style="opacity:0.008" fill="#212221" d="M 367.5,795.5 C 368.833,796.167 368.833,796.167 367.5,795.5 Z"/></g>
<g><path style="opacity:0.282" fill="#777775" d="M 877.5,790.5 C 878.451,791.919 878.784,793.585 878.5,795.5C 879.5,795.5 880.5,795.5 881.5,795.5C 880.432,796.434 879.099,796.768 877.5,796.5C 877.5,794.5 877.5,792.5 877.5,790.5 Z"/></g>
<g><path style="opacity:0.055" fill="#2d2e2d" d="M 676.5,800.5 C 677.833,801.167 677.833,801.167 676.5,800.5 Z"/></g>
<g><path style="opacity:0.008" fill="#212221" d="M 676.5,803.5 C 677.833,804.167 677.833,804.167 676.5,803.5 Z"/></g>
<g><path style="opacity:0.008" fill="#212221" d="M 390.5,805.5 C 391.833,806.167 391.833,806.167 390.5,805.5 Z"/></g>
<g><path style="opacity:0.024" fill="#242524" d="M 694.5,805.5 C 695.833,806.167 695.833,806.167 694.5,805.5 Z"/></g>
<g><path style="opacity:0.008" fill="#202120" d="M 845.5,806.5 C 846.833,807.167 846.833,807.167 845.5,806.5 Z"/></g>
<g><path style="opacity:0.031" fill="#272827" d="M 511.5,807.5 C 512.833,808.167 512.833,808.167 511.5,807.5 Z"/></g>
<g><path style="opacity:0.993" fill="#e8e8e8" d="M 548.5,800.5 C 552.8,800.815 554.467,803.149 553.5,807.5C 556.5,807.5 559.5,807.5 562.5,807.5C 561.795,814.827 561.628,822.16 562,829.5C 562.414,829.957 562.914,830.291 563.5,830.5C 567.065,823.924 569.565,816.924 571,809.5C 573.55,808.02 575.383,808.687 576.5,811.5C 575.248,821.103 571.582,829.603 565.5,837C 561.206,839.386 557.373,838.886 554,835.5C 552.401,831.503 551.567,827.336 551.5,823C 551.973,819.481 552.14,815.981 552,812.5C 550.676,815.244 548.509,816.577 545.5,816.5C 544.903,812.168 544.737,807.835 545,803.5C 546.145,802.364 547.312,801.364 548.5,800.5 Z"/></g>
<g><path style="opacity:0.039" fill="#292a29" d="M 420.5,808.5 C 421.833,809.167 421.833,809.167 420.5,808.5 Z"/></g>
<g><path style="opacity:0.078" fill="#323332" d="M 576.5,808.5 C 577.833,809.167 577.833,809.167 576.5,808.5 Z"/></g>
<g><path style="opacity:0.973" fill="#dedede" d="M 640.5,837.5 C 640.586,836.504 640.252,835.671 639.5,835C 640.981,834.02 642.315,832.853 643.5,831.5C 642.995,830.081 641.995,829.415 640.5,829.5C 643.36,821.586 646.027,813.586 648.5,805.5C 650.045,804.548 651.712,804.215 653.5,804.5C 652.649,815.58 649.482,825.913 644,835.5C 642.887,836.305 641.721,836.972 640.5,837.5 Z"/></g>
<g><path style="opacity:0.039" fill="#282928" d="M 369.5,809.5 C 370.833,810.167 370.833,810.167 369.5,809.5 Z"/></g>
<g><path style="opacity:0.985" fill="#e9e9e9" d="M 432.5,820.5 C 431.378,822.288 431.211,824.288 432,826.5C 433.039,825.756 433.539,824.756 433.5,823.5C 434.329,817.48 437.663,813.813 443.5,812.5C 444.554,812.68 445.554,813.013 446.5,813.5C 445.408,837.126 449.075,838.126 457.5,816.5C 460.416,815.065 461.749,816.065 461.5,819.5C 459.906,829.071 454.906,836.071 446.5,840.5C 440.038,838.587 437.372,834.254 438.5,827.5C 438.655,824.147 437.988,823.814 436.5,826.5C 435.407,831.482 434.407,836.482 433.5,841.5C 430.532,843.662 427.366,843.995 424,842.5C 423.017,834.516 422.183,826.516 421.5,818.5C 420.709,809.444 424.542,806.11 433,808.5C 433.497,812.524 433.331,816.524 432.5,820.5 Z"/></g>
<g><path style="opacity:0.016" fill="#232423" d="M 306.5,812.5 C 307.833,813.167 307.833,813.167 306.5,812.5 Z"/></g>
<g><path style="opacity:0.982" fill="#eaeaea" d="M 524.5,799.5 C 533.529,798.926 539.363,802.926 542,811.5C 543.921,819.536 542.088,826.536 536.5,832.5C 522.855,838.341 515.188,833.841 513.5,819C 513.724,810.368 517.391,803.868 524.5,799.5 Z M 526.5,805.5 C 527.822,805.33 528.989,805.663 530,806.5C 532.803,811.848 533.803,817.514 533,823.5C 532.267,827.988 530.267,828.988 527,826.5C 523.891,819.542 523.724,812.542 526.5,805.5 Z"/></g>
<g><path style="opacity:0.984" fill="#ececec" d="M 399.5,807.5 C 412.249,805.911 418.915,811.577 419.5,824.5C 419.3,834.693 414.3,841.026 404.5,843.5C 399.688,843.094 395.688,841.094 392.5,837.5C 390.78,841.101 388.447,844.268 385.5,847C 378.717,848.24 374.55,845.407 373,838.5C 372.168,830.147 372.335,821.813 373.5,813.5C 378.324,811.294 381.658,812.628 383.5,817.5C 382.37,824.45 382.203,831.45 383,838.5C 383.414,838.957 383.914,839.291 384.5,839.5C 388.072,832.225 390.572,824.559 392,816.5C 393.642,812.7 396.142,809.7 399.5,807.5 Z M 403.5,813.5 C 406.434,814.289 408.268,816.289 409,819.5C 409.667,823.833 409.667,828.167 409,832.5C 405.722,836.64 403.388,835.973 402,830.5C 401.052,824.65 401.552,818.983 403.5,813.5 Z"/></g>
<g><path style="opacity:0.016" fill="#222322" d="M 883.5,815.5 C 884.833,816.167 884.833,816.167 883.5,815.5 Z"/></g>
<g><path style="opacity:0.024" fill="#242524" d="M 886.5,815.5 C 885.833,816.167 885.833,816.167 886.5,815.5 Z"/></g>
<g><path style="opacity:0.047" fill="#2a2b2a" d="M 304.5,817.5 C 303.833,816.167 303.833,816.167 304.5,817.5 Z"/></g>
<g><path style="opacity:0.031" fill="#262726" d="M 299.5,818.5 C 300.833,819.167 300.833,819.167 299.5,818.5 Z"/></g>
<g><path style="opacity:0.008" fill="#212221" d="M 759.5,818.5 C 758.833,819.167 758.833,819.167 759.5,818.5 Z"/></g>
<g><path style="opacity:0.031" fill="#272827" d="M 368.5,820.5 C 369.833,821.167 369.833,821.167 368.5,820.5 Z"/></g>
<g><path style="opacity:0.537" fill="#898989" d="M 813.5,824.5 C 812.311,822.049 811.645,819.715 811.5,817.5C 811.783,816.711 812.283,816.044 813,815.5C 813.498,818.482 813.665,821.482 813.5,824.5 Z"/></g>
<g><path style="opacity:0.59" fill="#616161" d="M 432.5,820.5 C 432.263,821.791 432.596,822.791 433.5,823.5C 433.539,824.756 433.039,825.756 432,826.5C 431.211,824.288 431.378,822.288 432.5,820.5 Z"/></g>
<g><path style="opacity:0.016" fill="#222322" d="M 615.5,823.5 C 616.833,824.167 616.833,824.167 615.5,823.5 Z"/></g>
<g><path style="opacity:0.024" fill="#242524" d="M 197.5,824.5 C 198.833,825.167 198.833,825.167 197.5,824.5 Z"/></g>
<g><path style="opacity:0.031" fill="#343432" d="M 354.5,823.5 C 354.5,824.167 354.5,824.833 354.5,825.5C 352.067,825.214 352.067,824.548 354.5,823.5 Z"/></g>
<g><path style="opacity:0.008" fill="#212221" d="M 542.5,824.5 C 543.833,825.167 543.833,825.167 542.5,824.5 Z"/></g>
<g><path style="opacity:0.118" fill="#535353" d="M 438.5,827.5 C 437.833,827.167 437.167,826.833 436.5,826.5C 437.988,823.814 438.655,824.147 438.5,827.5 Z"/></g>
<g><path style="opacity:0.016" fill="#222322" d="M 611.5,827.5 C 612.833,828.167 612.833,828.167 611.5,827.5 Z"/></g>
<g><path style="opacity:0.016" fill="#222322" d="M 813.5,828.5 C 814.833,829.167 814.833,829.167 813.5,828.5 Z"/></g>
<g><path style="opacity:0.031" fill="#272827" d="M 779.5,829.5 C 780.833,830.167 780.833,830.167 779.5,829.5 Z"/></g>
<g><path style="opacity:0.031" fill="#262726" d="M 621.5,832.5 C 622.833,833.167 622.833,833.167 621.5,832.5 Z"/></g>
<g><path style="opacity:0.99" fill="#e9e9e9" d="M 354.5,823.5 C 352.067,824.548 352.067,825.214 354.5,825.5C 368.035,828.92 371.701,836.587 365.5,848.5C 358.562,853.341 351.729,853.341 345,848.5C 342.994,845.464 342.16,842.131 342.5,838.5C 340.685,843.455 337.851,847.788 334,851.5C 330.278,851.105 326.944,849.771 324,847.5C 318.915,859.13 311.915,860.463 303,851.5C 298.573,841.375 298.406,831.209 302.5,821C 302.167,820.667 301.833,820.333 301.5,820C 302.942,819.623 303.942,818.79 304.5,817.5C 310.225,811.431 316.225,811.098 322.5,816.5C 327.465,814.484 330.798,815.984 332.5,821C 331.388,827.795 331.222,834.629 332,841.5C 332.414,841.957 332.914,842.291 333.5,842.5C 337.379,835.359 339.545,827.692 340,819.5C 340.915,818.672 341.581,817.672 342,816.5C 349.384,816.877 356.217,814.877 362.5,810.5C 366.909,811.992 368.742,814.992 368,819.5C 363.722,821.537 359.222,822.87 354.5,823.5 Z M 342.5,838.5 C 343.374,835.211 344.041,831.877 344.5,828.5C 352.413,829.786 357.413,834.286 359.5,842C 358.347,845.677 356.514,846.177 354,843.5C 353.782,840.574 353.282,837.74 352.5,835C 350.167,834.333 347.833,834.333 345.5,835C 344.837,836.518 343.837,837.685 342.5,838.5 Z M 314.5,820.5 C 315.978,820.238 317.311,820.571 318.5,821.5C 321.19,829.86 321.023,838.194 318,846.5C 315.999,851.189 313.666,851.522 311,847.5C 308.268,837.895 309.435,828.895 314.5,820.5 Z"/></g>
<g><path style="opacity:0.008" fill="#202120" d="M 599.5,834.5 C 598.833,835.167 598.833,835.167 599.5,834.5 Z"/></g>
<g><path style="opacity:0.008" fill="#212221" d="M 629.5,835.5 C 630.833,836.167 630.833,836.167 629.5,835.5 Z"/></g>
<g><path style="opacity:0.055" fill="#2c2d2c" d="M 457.5,837.5 C 456.833,836.167 456.833,836.167 457.5,837.5 Z"/></g>
<g><path style="opacity:0.016" fill="#222322" d="M 457.5,837.5 C 458.833,838.167 458.833,838.167 457.5,837.5 Z"/></g>
<g><path style="opacity:0.016" fill="#232423" d="M 419.5,842.5 C 420.833,843.167 420.833,843.167 419.5,842.5 Z"/></g>
<g><path style="opacity:0.031" fill="#272827" d="M 427.5,844.5 C 428.833,845.167 428.833,845.167 427.5,844.5 Z"/></g>
<g><path style="opacity:0.016" fill="#222322" d="M 424.5,845.5 C 425.833,846.167 425.833,846.167 424.5,845.5 Z"/></g>
<g><path style="opacity:0.008" fill="#212221" d="M 365.5,848.5 C 366.833,849.167 366.833,849.167 365.5,848.5 Z"/></g>
<g><path style="opacity:0.031" fill="#262726" d="M 363.5,850.5 C 364.833,851.167 364.833,851.167 363.5,850.5 Z"/></g>
<g><path style="opacity:0.024" fill="#252625" d="M 329.5,853.5 C 330.833,854.167 330.833,854.167 329.5,853.5 Z"/></g>
</svg>
